<svg width="187.954" height="70.219" xmlns="http://www.w3.org/2000/svg">

 <g>
  <title>Layer 1</title>
  <path stroke="null" fill="#00adb5" d="m11.2577,51.37584c-0.1202,0.06257 -3.30729,7.5686 0.846,11.58976c0,0.01192 8.6832,10.59664 28.39069,5.76012c0.1202,0.10527 16.40821,-4.54156 19.44877,-20.43453c0,0 2.05146,-14.24339 -8.09364,-24.62949c-0.1202,0 7.00723,12.78449 -4.95234,24.10314c-0.01946,0.01688 -15.30579,13.90375 -35.63947,3.611z" data-name="Path 44" id="Path_44"/>
  <text stroke-dasharray="2,2" font-style="normal" stroke="null" transform="matrix(0.94966 0 0 0.905736 63.7456 46.1675)" x="131.07244" y="142.64" font-weight="bold" font-family="sans-serif" font-size="38" fill="#00adb5" id="MEDIC">
   <tspan stroke="null" id="svg_1" y="0" x="0">MEDIC</tspan>
  </text>
  <path stroke="null" fill="#00adb5" d="m28.40677,7.42414c-0.02175,-0.03079 2.28957,1.88694 2.28957,1.88694s-14.13353,12.05157 -16.79057,19.91116c-0.24041,0 -15.34013,5.76012 -5.19389,21.06318c0,0 -2.0091,6.20206 0,11.25806c0.02862,-0.04767 -16.59138,-12.95531 -3.30958,-34.53194c0.0103,-0.02781 9.63566,-13.91765 23.00447,-19.5874z" data-name="Path 43" id="Path_43"/>
  <path stroke="null" fill="#00adb5" d="m28.36422,53.22777c0.00916,-0.02284 17.38357,-6.2974 15.98235,-23.94126c0.02862,-0.00794 -1.39435,-13.38136 -20.34857,-28.77777c-0.1866,0 22.52137,11.74072 25.76913,22.88755c-0.00572,-0.00099 7.75936,25.31078 -21.40291,29.83148z" data-name="Path 45" id="Path_45"/>
  <path stroke="null" fill="#13bfb1" d="m25.85623,52.98969s0,-2.18487 0,-2.18487s7.80515,-1.77372 8.54926,-6.20703c0,-0.16089 0.55751,-5.15928 -3.34506,-5.72338c0,0.24232 0.55637,-0.88686 1.30048,-1.45096c0,-0.16089 -1.30048,0 -1.30048,0s0,-5.80382 -6.50582,-7.41666c0,0 -10.77129,-2.03392 -15.14552,5.15928c0,0.16089 -4.36736,7.65798 2.6021,13.86501c0,-0.00397 7.00952,6.13453 13.84504,3.95859z" data-name="Path 46" id="Path_46"/>
  <path stroke="null" fill="#00adb5" d="m34.72371,4.08823s7.41249,-3.78182 9.99284,-3.83247a31.63959,27.44798 0 0 0 -8.37983,5.10963l-1.613,-1.27716z" data-name="Path 47" id="Path_47"/>
  <path stroke="null" fill="#00adb5" d="m33.44341,23.05952l2.17509,0a0.72465,0.62865 0 0 1 -0.07098,0.06555q-0.03549,0.02781 -0.06411,0.04668l-0.02175,0.02483l-4.4452,3.7123a0.44876,0.3893 0 0 1 -0.62849,0l-4.45665,-3.72918a0.67428,0.58495 0 0 1 -0.14997,-0.12017l2.63301,0a0.4499,0.3903 0 0 0 0.28162,-0.08342a0.42929,0.37242 0 0 0 0.16027,-0.21352l0.50027,-1.74095l1.36001,4.12345a0.45791,0.39725 0 0 0 0.1637,0.20458a0.44647,0.38732 0 0 0 0.27818,0.08044a0.43616,0.37838 0 0 0 0.27131,-0.08044a0.45791,0.39725 0 0 0 0.16485,-0.20458l1.0429,-3.0042l0.39953,0.69519a0.42815,0.37143 0 0 0 0.40754,0.2165l-0.00114,0.00695zm3.65645,-2.65164a3.88197,3.36769 0 0 1 -0.73495,1.85714l-2.64102,0l-0.79219,-1.36952a0.43044,0.37341 0 0 0 -0.18202,-0.16684a0.45791,0.39725 0 0 0 -0.66054,0.23537l-0.91583,2.66356l-1.40007,-4.25157a0.44876,0.3893 0 0 0 -0.17057,-0.20458a0.45791,0.39725 0 0 0 -0.27933,-0.08442a0.44647,0.38732 0 0 0 -0.43616,0.29794l-0.82768,2.88006l-3.02109,0a3.88197,3.36769 0 0 1 -0.7361,-1.85814a3.27523,2.84133 0 0 1 0.90782,-2.13422a3.43436,2.97937 0 0 1 2.50708,-0.76868a2.84594,2.46891 0 0 1 0.90324,0.13308a3.65645,3.17204 0 0 1 0.8563,0.35752q0.3961,0.22643 0.68687,0.42406a6.58595,5.71345 0 0 1 0.54263,0.42108a6.57794,5.70649 0 0 1 0.54263,-0.42108q0.2862,-0.19862 0.68687,-0.42406a3.65645,3.17204 0 0 1 0.85744,-0.35951a2.84594,2.46891 0 0 1 0.90324,-0.13308a3.43436,2.97937 0 0 1 2.50708,0.76868a3.27523,2.84133 0 0 1 0.90667,2.13125l-0.0103,0.00596z" data-name="Icon metro-heartbeat" id="Icon_metro-heartbeat"/>
 </g>
</svg>