<svg width="187.954" height="70.219" xmlns="http://www.w3.org/2000/svg">

 <g>
  <title>Layer 1</title>
  <text stroke-dasharray="2,2" font-style="normal" stroke="null" transform="matrix(0.94966 0 0 0.905736 63.7456 46.1675)" x="131.07244" y="142.64" font-weight="bold" font-family="sans-serif" font-size="38" fill="#00adb5" id="MEDIC">
   <tspan stroke="null" id="svg_1" y="0" x="0">MEDIC</tspan>
  </text>
  <g transform="matrix(1.00809 0 0 0.998033 67.6681 43.7117)" stroke="null" id="svg_3">
   <path stroke="null" fill="#00adb5" d="m-38.94638,-36.35911c-0.02158,-0.03085 2.27121,1.89066 2.27121,1.89066s-14.02015,12.07532 -16.65589,19.9504c-0.23848,0 -15.21708,5.77148 -5.15223,21.1047c0,0 -1.99298,6.21429 0,11.28025c0.02839,-0.04776 -16.45829,-12.98085 -3.28303,-34.6c0.01022,-0.02786 9.55837,-13.94508 22.81994,-19.626z" data-name="Path 43" id="Path_43"/>
   <path stroke="null" fill="#00adb5" d="m-55.95789,7.67922c-0.11924,0.06269 -3.28076,7.58352 0.83921,11.61261c0,0.01194 8.61355,10.61753 28.16295,5.77148c0.11924,0.10548 16.2766,-4.55051 19.29276,-20.47481c0,0 2.035,-14.27147 -8.02871,-24.67804c-0.11924,0 6.95103,12.80969 -4.91262,24.15064c-0.01931,0.01692 -15.18301,13.93115 -35.35359,3.61812z" data-name="Path 44" id="Path_44"/>
   <path stroke="null" fill="#00adb5" d="m-38.98859,9.2843c0.00908,-0.02289 17.24413,-6.30982 15.85415,-23.98844c0.02839,-0.00796 -1.38316,-13.40774 -20.18534,-28.83449c-0.1851,0 22.34072,11.76386 25.56242,22.93266c-0.00568,-0.001 7.69712,25.36066 -21.23123,29.89028z" data-name="Path 45" id="Path_45"/>
   <path stroke="null" fill="#13bfb1" d="m-41.47646,9.29625s0,-2.18918 0,-2.18918s7.74254,-1.77722 8.48068,-6.21926c0,-0.1612 0.55304,-5.16945 -3.31823,-5.73466c0,0.2428 0.5519,-0.88861 1.29004,-1.45381c0,-0.1612 -1.29004,0 -1.29004,0s0,-5.81526 -6.45363,-7.43127c0,0 -10.68489,-2.03793 -15.02403,5.16945c0,0.1612 -4.33233,7.67308 2.58123,13.89234c0,-0.00398 6.9533,6.14662 13.73398,3.9664z" data-name="Path 46" id="Path_46"/>
   <path stroke="null" fill="#00adb5" d="m-32.6801,-39.70159s7.35303,-3.78927 9.91268,-3.84002a31.38579,27.50208 0 0 0 -8.31261,5.1197l-1.60006,-1.27968z" data-name="Path 47" id="Path_47"/>
   <path stroke="null" fill="#00adb5" d="m-33.70214,19.8869l2.15765,0a0.71884,0.62989 0 0 1 -0.07041,0.06568q-0.0352,0.02786 -0.06359,0.04677l-0.02158,0.02488l-4.40955,3.71962a0.44516,0.39007 0 0 1 -0.62345,0l-4.4209,-3.73653a0.66887,0.5861 0 0 1 -0.14876,-0.1204l2.61189,0a0.44629,0.39107 0 0 0 0.27936,-0.08359a0.42585,0.37316 0 0 0 0.15898,-0.21394l0.49626,-1.74438l1.3491,4.13158a0.45424,0.39803 0 0 0 0.16239,0.20499a0.44289,0.38808 0 0 0 0.27595,0.0806a0.43266,0.37913 0 0 0 0.26914,-0.0806a0.45424,0.39803 0 0 0 0.16353,-0.20499l1.03453,-3.01012l0.39633,0.69656a0.42472,0.37216 0 0 0 0.40427,0.21693l-0.00114,0.00697zm3.62712,-2.65687a3.85083,3.37432 0 0 1 -0.72906,1.8608l-2.61984,0l-0.78584,-1.37222a0.42699,0.37415 0 0 0 -0.18056,-0.16717a0.45424,0.39803 0 0 0 -0.65524,0.23583l-0.90848,2.66881l-1.38884,-4.25995a0.44516,0.39007 0 0 0 -0.1692,-0.20499a0.45424,0.39803 0 0 0 -0.27709,-0.08458a0.44289,0.38808 0 0 0 -0.43266,0.29852l-0.82104,2.88574l-2.99686,0a3.85083,3.37432 0 0 1 -0.73019,-1.8618a3.24896,2.84693 0 0 1 0.90053,-2.13843a3.40681,2.98525 0 0 1 2.48697,-0.77019a2.82311,2.47377 0 0 1 0.89599,0.13334a3.62712,3.17829 0 0 1 0.84943,0.35823q0.39292,0.22688 0.68136,0.4249a6.53312,5.72471 0 0 1 0.53828,0.42191a6.52517,5.71774 0 0 1 0.53828,-0.42191q0.2839,-0.19902 0.68136,-0.4249a3.62712,3.17829 0 0 1 0.85057,-0.36022a2.82311,2.47377 0 0 1 0.89599,-0.13334a3.40681,2.98525 0 0 1 2.48697,0.77019a3.24896,2.84693 0 0 1 0.8994,2.13545l-0.01022,0.00597z" data-name="Icon metro-heartbeat" id="Icon_metro-heartbeat"/>
  </g>
 </g>
</svg>